<svg id="visual" viewBox="0 0 900 300" width="900" height="300" xmlns="http://www.w3.org/2000/svg" xmlns:xlink="http://www.w3.org/1999/xlink" version="1.1"><rect x="0" y="0" width="900" height="300" fill="#000000"></rect><path d="M0 213L21.5 210.5C43 208 86 203 128.8 200.7C171.7 198.3 214.3 198.7 257.2 196.2C300 193.7 343 188.3 385.8 188.2C428.7 188 471.3 193 514.2 191.7C557 190.3 600 182.7 642.8 186C685.7 189.3 728.3 203.7 771.2 210.2C814 216.7 857 215.3 878.5 214.7L900 214L900 301L878.5 301C857 301 814 301 771.2 301C728.3 301 685.7 301 642.8 301C600 301 557 301 514.2 301C471.3 301 428.7 301 385.8 301C343 301 300 301 257.2 301C214.3 301 171.7 301 128.8 301C86 301 43 301 21.5 301L0 301Z" fill="#1a0a33"></path><path d="M0 209L21.5 211.8C43 214.7 86 220.3 128.8 220.7C171.7 221 214.3 216 257.2 218C300 220 343 229 385.8 231.2C428.7 233.3 471.3 228.7 514.2 222.8C557 217 600 210 642.8 210.3C685.7 210.7 728.3 218.3 771.2 219.3C814 220.3 857 214.7 878.5 211.8L900 209L900 301L878.5 301C857 301 814 301 771.2 301C728.3 301 685.7 301 642.8 301C600 301 557 301 514.2 301C471.3 301 428.7 301 385.8 301C343 301 300 301 257.2 301C214.3 301 171.7 301 128.8 301C86 301 43 301 21.5 301L0 301Z" fill="#201e4c"></path><path d="M0 238L21.5 235.3C43 232.7 86 227.3 128.8 227C171.7 226.7 214.3 231.3 257.2 233.8C300 236.3 343 236.7 385.8 234.2C428.7 231.7 471.3 226.3 514.2 228.2C557 230 600 239 642.8 241.8C685.7 244.7 728.3 241.3 771.2 241.2C814 241 857 244 878.5 245.5L900 247L900 301L878.5 301C857 301 814 301 771.2 301C728.3 301 685.7 301 642.8 301C600 301 557 301 514.2 301C471.3 301 428.7 301 385.8 301C343 301 300 301 257.2 301C214.3 301 171.7 301 128.8 301C86 301 43 301 21.5 301L0 301Z" fill="#233266"></path><path d="M0 251L21.5 252.5C43 254 86 257 128.8 259.5C171.7 262 214.3 264 257.2 263.7C300 263.3 343 260.7 385.8 256.8C428.7 253 471.3 248 514.2 245.3C557 242.7 600 242.3 642.8 242.8C685.7 243.3 728.3 244.7 771.2 246.8C814 249 857 252 878.5 253.5L900 255L900 301L878.5 301C857 301 814 301 771.2 301C728.3 301 685.7 301 642.8 301C600 301 557 301 514.2 301C471.3 301 428.7 301 385.8 301C343 301 300 301 257.2 301C214.3 301 171.7 301 128.8 301C86 301 43 301 21.5 301L0 301Z" fill="#204780"></path><path d="M0 265L21.5 267.8C43 270.7 86 276.3 128.8 277.2C171.7 278 214.3 274 257.2 270.8C300 267.7 343 265.3 385.8 266.2C428.7 267 471.3 271 514.2 274.8C557 278.7 600 282.3 642.8 282.2C685.7 282 728.3 278 771.2 276.7C814 275.3 857 276.7 878.5 277.3L900 278L900 301L878.5 301C857 301 814 301 771.2 301C728.3 301 685.7 301 642.8 301C600 301 557 301 514.2 301C471.3 301 428.7 301 385.8 301C343 301 300 301 257.2 301C214.3 301 171.7 301 128.8 301C86 301 43 301 21.5 301L0 301Z" fill="#125d9a"></path></svg>